<svg width="24" height="24" viewBox="0 0 24 24" fill="none" xmlns="http://www.w3.org/2000/svg">
<g id="road-perspective 1">
<path id="Vector" d="M21.714 16.9328L17.1316 5.51404C17.073 5.37547 16.9778 5.25518 16.846 5.1532C16.714 5.05099 16.5747 5 16.4283 5H12.703C12.7982 5 12.8824 5.03456 12.9557 5.10378C13.0289 5.1732 13.0692 5.25506 13.0766 5.34984L13.2415 7.45C13.2488 7.5521 13.2196 7.63596 13.1539 7.70147C13.0878 7.76709 13.0073 7.79985 12.9119 7.79985H11.0878C10.9926 7.79985 10.9121 7.76709 10.8461 7.70147C10.7802 7.636 10.7509 7.5521 10.7583 7.45L10.9232 5.34984C10.9304 5.25506 10.9706 5.1732 11.044 5.10378C11.1173 5.03467 11.2014 5 11.2968 5H7.57144C7.42495 5 7.28573 5.05099 7.15383 5.1532C7.02204 5.25506 6.9269 5.37547 6.8682 5.51404L2.28571 16.9328C2.09522 17.3849 2 17.8078 2 18.2016C2 18.7339 2.16847 19 2.50552 19H10.2417C10.1465 19 10.066 18.9654 10 18.8962C9.93407 18.8267 9.90478 18.7449 9.91221 18.65L10.1319 15.8503C10.1392 15.7554 10.1795 15.6734 10.2528 15.6041C10.326 15.5347 10.4103 15.5004 10.5055 15.5004H13.4944C13.5897 15.5004 13.6738 15.5347 13.7472 15.6041C13.8205 15.6734 13.8608 15.7554 13.8681 15.8503L14.088 18.65C14.0955 18.7449 14.0659 18.8267 14.0002 18.8962C13.9343 18.9654 13.8537 19 13.7584 19H21.4944C21.8314 19 22 18.7339 22 18.2016C22 17.8079 21.9046 17.385 21.714 16.9328ZM13.6594 13.0936C13.6665 13.1812 13.6373 13.2541 13.5714 13.3123C13.5057 13.3708 13.4285 13.3999 13.3407 13.3999H10.6593C10.5714 13.3999 10.4943 13.3708 10.4285 13.3123C10.3625 13.2538 10.3333 13.1809 10.3406 13.0936V13.0499L10.6044 9.55005C10.6117 9.45524 10.652 9.37325 10.7252 9.30395C10.7985 9.23465 10.8828 9.20006 10.978 9.20006H13.0218C13.1171 9.20006 13.2014 9.23454 13.2746 9.30395C13.3478 9.37325 13.3882 9.45524 13.3956 9.55005L13.6593 13.0499V13.0936H13.6594Z" fill="#666C73"/>
</g>
</svg>
