<svg width="32" height="32" viewBox="0 0 32 32" fill="none" xmlns="http://www.w3.org/2000/svg">
<g id="Icons/Flat/Facebook">
<path id="Vector" d="M26.0003 2.66602H6.00033C4.16199 2.66602 2.66699 4.16102 2.66699 5.99935V25.9993C2.66699 27.8377 4.16199 29.3327 6.00033 29.3327H26.0003C27.8387 29.3327 29.3337 27.8377 29.3337 25.9993V5.99935C29.3337 4.16102 27.8387 2.66602 26.0003 2.66602Z" fill="#1976D2"/>
<path id="Vector_2" d="M25.333 15.384H21.333V11.8968C21.333 10.9343 22.0498 11.025 22.933 11.025H24.533V6.66602H21.333C18.6818 6.66602 16.533 9.00766 16.533 11.8968V15.384H13.333V19.7429H16.533V29.3327H21.333V19.7429H23.733L25.333 15.384Z" fill="#FAFAFA"/>
</g>
</svg>
