<svg width="32" height="32" viewBox="0 0 32 32" fill="none" xmlns="http://www.w3.org/2000/svg">
<g id="Icons/Flat/Instagram">
<path id="Vector" d="M16.0047 2.66602C10.4381 2.66602 8.81013 2.67176 8.49368 2.69802C7.35133 2.793 6.64049 2.97291 5.86607 3.35859C5.26926 3.65502 4.79858 3.99864 4.33405 4.48032C3.48806 5.35876 2.97533 6.43946 2.78973 7.72409C2.69949 8.34773 2.67324 8.47492 2.6679 11.6604C2.66585 12.7223 2.6679 14.1197 2.6679 15.9941C2.6679 21.5577 2.67406 23.1845 2.70072 23.5004C2.79301 24.6123 2.96733 25.3118 3.3365 26.077C4.042 27.5418 5.38944 28.6413 6.97684 29.0516C7.52648 29.1932 8.13354 29.2711 8.91288 29.3081C9.24308 29.3224 12.6086 29.3327 15.9762 29.3327C19.3437 29.3327 22.7113 29.3286 23.0333 29.3122C23.9357 29.2697 24.4597 29.1993 25.0391 29.0496C26.6367 28.6372 27.9596 27.5541 28.6794 26.0688C29.0414 25.3221 29.225 24.5959 29.308 23.542C29.3261 23.3123 29.3337 19.649 29.3337 15.9906C29.3337 12.3317 29.3255 8.67514 29.3074 8.44538C29.2233 7.37452 29.0398 6.65446 28.6661 5.89337C28.3595 5.27034 28.019 4.80507 27.5248 4.32934C26.6427 3.4866 25.5639 2.97373 24.2784 2.78828C23.6555 2.69822 23.5315 2.67155 20.3444 2.66602H16.0047Z" fill="url(#paint0_radial_1208_36705)"/>
<path id="Vector_2" d="M16.0047 2.66602C10.4381 2.66602 8.81013 2.67176 8.49368 2.69802C7.35133 2.793 6.64049 2.97291 5.86607 3.35859C5.26926 3.65502 4.79858 3.99864 4.33405 4.48032C3.48806 5.35876 2.97533 6.43946 2.78973 7.72409C2.69949 8.34773 2.67324 8.47492 2.6679 11.6604C2.66585 12.7223 2.6679 14.1197 2.6679 15.9941C2.6679 21.5577 2.67406 23.1845 2.70072 23.5004C2.79301 24.6123 2.96733 25.3118 3.3365 26.077C4.042 27.5418 5.38944 28.6413 6.97684 29.0516C7.52648 29.1932 8.13354 29.2711 8.91288 29.3081C9.24308 29.3224 12.6086 29.3327 15.9762 29.3327C19.3437 29.3327 22.7113 29.3286 23.0333 29.3122C23.9357 29.2697 24.4597 29.1993 25.0391 29.0496C26.6367 28.6372 27.9596 27.5541 28.6794 26.0688C29.0414 25.3221 29.225 24.5959 29.308 23.542C29.3261 23.3123 29.3337 19.649 29.3337 15.9906C29.3337 12.3317 29.3255 8.67514 29.3074 8.44538C29.2233 7.37452 29.0398 6.65446 28.6661 5.89337C28.3595 5.27034 28.019 4.80507 27.5248 4.32934C26.6427 3.4866 25.5639 2.97373 24.2784 2.78828C23.6555 2.69822 23.5315 2.67155 20.3444 2.66602H16.0047Z" fill="url(#paint1_radial_1208_36705)"/>
<path id="Vector_3" d="M16.0012 6.66602C13.4664 6.66602 13.1483 6.6771 12.1527 6.7224C11.1591 6.7679 10.4809 6.92521 9.88741 7.15602C9.27355 7.3944 8.75282 7.71329 8.23404 8.23227C7.71486 8.75104 7.39597 9.27177 7.1568 9.88543C6.92541 10.4791 6.76791 11.1575 6.72319 12.1507C6.67866 13.1463 6.66699 13.4646 6.66699 15.9993C6.66699 18.5341 6.67827 18.8513 6.72338 19.8468C6.76908 20.8404 6.92638 21.5187 7.157 22.1121C7.39558 22.726 7.71448 23.2467 8.23345 23.7655C8.75204 24.2846 9.27277 24.6043 9.88625 24.8427C10.4801 25.0735 11.1585 25.2308 12.1519 25.2763C13.1475 25.3216 13.4654 25.3327 16 25.3327C18.535 25.3327 18.8522 25.3216 19.8477 25.2763C20.8414 25.2308 21.5204 25.0735 22.1142 24.8427C22.7279 24.6043 23.2478 24.2846 23.7664 23.7655C24.2856 23.2467 24.6045 22.726 24.8437 22.1123C25.0731 21.5187 25.2306 20.8402 25.2773 19.847C25.322 18.8515 25.3337 18.5341 25.3337 15.9993C25.3337 13.4646 25.322 13.1465 25.2773 12.1509C25.2306 11.1573 25.0731 10.4791 24.8437 9.88563C24.6045 9.27177 24.2856 8.75104 23.7664 8.23227C23.2472 7.7131 22.7281 7.39421 22.1136 7.15602C21.5186 6.92521 20.84 6.7679 19.8464 6.7224C18.8508 6.6771 18.5339 6.66602 15.9983 6.66602H16.0012ZM15.1639 8.34796C15.4124 8.34757 15.6897 8.34796 16.0012 8.34796C18.4932 8.34796 18.7886 8.3569 19.7727 8.40163C20.6827 8.44324 21.1766 8.59529 21.5056 8.72304C21.9412 8.89221 22.2517 9.09443 22.5782 9.4211C22.9048 9.74777 23.1071 10.0589 23.2766 10.4944C23.4044 10.823 23.5566 11.3169 23.598 12.2269C23.6428 13.2108 23.6525 13.5064 23.6525 15.9972C23.6525 18.488 23.6428 18.7836 23.598 19.7675C23.5564 20.6775 23.4044 21.1714 23.2766 21.5C23.1074 21.9355 22.9048 22.2457 22.5782 22.5722C22.2515 22.8988 21.9413 23.101 21.5056 23.2702C21.177 23.3985 20.6827 23.5502 19.7727 23.5918C18.7888 23.6365 18.4932 23.6463 16.0012 23.6463C13.509 23.6463 13.2136 23.6365 12.2297 23.5918C11.3197 23.5498 10.8258 23.3978 10.4966 23.27C10.0611 23.1009 9.74994 22.8986 9.42327 22.572C9.0966 22.2453 8.89438 21.935 8.72482 21.4992C8.59707 21.1706 8.44482 20.6767 8.4034 19.7667C8.35868 18.7828 8.34973 18.4873 8.34973 15.9949C8.34973 13.5025 8.35868 13.2085 8.4034 12.2246C8.44501 11.3146 8.59707 10.8207 8.72482 10.4917C8.89399 10.0562 9.0966 9.74504 9.42327 9.41838C9.74994 9.09171 10.0611 8.88949 10.4966 8.71993C10.8256 8.5916 11.3197 8.43993 12.2297 8.39813C13.0907 8.35924 13.4244 8.34757 15.1639 8.34563V8.34796ZM20.9833 9.89768C20.365 9.89768 19.8633 10.3988 19.8633 11.0173C19.8633 11.6356 20.365 12.1373 20.9833 12.1373C21.6016 12.1373 22.1033 11.6356 22.1033 11.0173C22.1033 10.399 21.6016 9.89729 20.9833 9.89729V9.89768ZM16.0012 11.2063C13.3542 11.2063 11.2081 13.3524 11.2081 15.9993C11.2081 18.6463 13.3542 20.7914 16.0012 20.7914C18.6482 20.7914 20.7935 18.6463 20.7935 15.9993C20.7935 13.3524 18.6482 11.2063 16.0012 11.2063ZM16.0012 12.8882C17.7193 12.8882 19.1123 14.281 19.1123 15.9993C19.1123 17.7175 17.7193 19.1105 16.0012 19.1105C14.2829 19.1105 12.8901 17.7175 12.8901 15.9993C12.8901 14.281 14.2829 12.8882 16.0012 12.8882Z" fill="white"/>
</g>
<defs>
<radialGradient id="paint0_radial_1208_36705" cx="0" cy="0" r="1" gradientUnits="userSpaceOnUse" gradientTransform="translate(9.75036 31.3866) rotate(-90) scale(26.4286 24.5807)">
<stop stop-color="#FFDD55"/>
<stop offset="0.1" stop-color="#FFDD55"/>
<stop offset="0.5" stop-color="#FF543E"/>
<stop offset="1" stop-color="#C837AB"/>
</radialGradient>
<radialGradient id="paint1_radial_1208_36705" cx="0" cy="0" r="1" gradientUnits="userSpaceOnUse" gradientTransform="translate(-1.79982 4.58704) rotate(78.6806) scale(11.8137 48.6966)">
<stop stop-color="#3771C8"/>
<stop offset="0.128" stop-color="#3771C8"/>
<stop offset="1" stop-color="#6600FF" stop-opacity="0"/>
</radialGradient>
</defs>
</svg>
