<svg width="20" height="20" viewBox="0 0 20 20" fill="#666C73" xmlns="http://www.w3.org/2000/svg">
<g id="Icons/Location">
<path id="Vector" fill-rule="evenodd" clip-rule="evenodd" d="M2.33301 6.87818C2.33301 3.8116 4.8956 1.33301 7.99531 1.33301C11.1038 1.33301 13.6663 3.8116 13.6663 6.87818C13.6663 8.42347 13.1043 9.85809 12.1793 11.0741C11.1589 12.4154 9.90111 13.584 8.48537 14.5013C8.16135 14.7133 7.86892 14.7293 7.51331 14.5013C6.0895 13.584 4.83173 12.4154 3.82001 11.0741C2.89433 9.85809 2.33301 8.42347 2.33301 6.87818ZM6.12916 7.05084C6.12916 8.07815 6.96745 8.88612 7.9953 8.88612C9.02384 8.88612 9.87019 8.07815 9.87019 7.05084C9.87019 6.03154 9.02384 5.18423 7.9953 5.18423C6.96745 5.18423 6.12916 6.03154 6.12916 7.05084Z" fill="#666C73"/>
</g>
</svg>
