<svg width="16" height="16" viewBox="0 0 16 16" fill="none" xmlns="http://www.w3.org/2000/svg">
<g id="Icons/Flat/Star">
<path id="Vector" d="M14.6316 6.37249C14.5443 6.09076 14.3048 5.89067 14.0215 5.86402L10.1731 5.49939L8.6514 1.78269C8.53919 1.5103 8.28365 1.33398 7.99973 1.33398C7.71581 1.33398 7.46027 1.5103 7.34806 1.78333L5.82632 5.49939L1.97735 5.86402C1.69455 5.8913 1.45569 6.09076 1.3679 6.37249C1.28011 6.65422 1.36118 6.96323 1.57512 7.15802L4.48402 9.8201L3.62625 13.7629C3.56349 14.0528 3.67132 14.3525 3.90183 14.5263C4.02574 14.6198 4.1707 14.6673 4.31688 14.6673C4.44292 14.6673 4.56795 14.6319 4.68015 14.5618L7.99973 12.4915L11.3181 14.5618C11.5609 14.7142 11.867 14.7003 12.097 14.5263C12.3276 14.3519 12.4354 14.0522 12.3726 13.7629L11.5148 9.8201L14.4237 7.15855C14.6377 6.96323 14.7193 6.65475 14.6316 6.37249Z" fill="#FFEB3B"/>
</g>
</svg>
